<?xml version="1.0" encoding="iso-8859-1"?>
<!-- Uploaded to: SVG Repo, www.svgrepo.com, Generator: SVG Repo Mixer Tools -->
<!DOCTYPE svg PUBLIC "-//W3C//DTD SVG 1.1//EN" "http://www.w3.org/Graphics/SVG/1.1/DTD/svg11.dtd">
<svg fill="#000000" version="1.1" id="Capa_1" xmlns="http://www.w3.org/2000/svg" xmlns:xlink="http://www.w3.org/1999/xlink" 
	 width="800px" height="800px" viewBox="0 0 235.957 235.957"
	 xml:space="preserve">
<g>
	<path d="M234.687,81.249l-25.174-25.173c2.964-2.989,4.88-4.945,6.033-6.252c0.271-0.157,0.603-0.407,0.818-0.623
		c4.593-4.595,2.262-13.853-5.421-21.534c-7.193-7.188-16.405-9.786-21.06-5.871c-0.609,0.15-1.178,0.465-1.633,0.922l-6.051,6.048
		l-27.739-27.74c-0.702-0.705-1.626-1.062-2.684-1.023c-0.995,0.058-1.919,0.536-2.542,1.321l-38.187,48.113
		c-1.107,1.395-0.991,3.395,0.267,4.658l21.565,21.565L3.526,205.015c-0.519,0.517-0.787,1.211-0.857,1.937
		c-4.175,7.532-2.892,17.111,3.284,23.274c3.692,3.696,8.602,5.731,13.827,5.731c3.256,0,6.423-0.804,9.255-2.323
		c0.806-0.075,1.572-0.425,2.161-1.013l2.18-2.193c0.06-0.055,0.117-0.104,0.173-0.158c0.031-0.034,0.063-0.064,0.094-0.092
		c0,0,68.298-68.454,126.701-127.051l21.282,21.283c0.678,0.677,1.577,1.026,2.478,1.026c0.767,0,1.533-0.25,2.18-0.764
		l48.108-38.198c0.781-0.62,1.264-1.545,1.318-2.544C235.768,82.929,235.392,81.954,234.687,81.249z M192.416,28.472
		c1.037-0.407,1.77-1.097,1.947-1.28c0.194-0.197,0.64-0.304,1.222-0.304c2.323,0,6.443,1.772,10.41,5.735
		c5.305,5.306,6.242,10.297,5.52,11.492c-0.014,0.007-0.023,0.017-0.034,0.024c-0.15,0.126-0.291,0.26-0.417,0.407
		c-0.438,0.462-2.68,2.729-6.358,6.434l-16.423-18.37L192.416,28.472z M28.698,225.201c-0.027,0.027-0.06,0.059-0.084,0.086
		c-0.01,0.011-0.021,0.024-0.034,0.034l-1.213,1.212c-0.245,0.092-0.484,0.215-0.708,0.362c-2.043,1.342-4.421,2.054-6.882,2.054
		c-3.354,0-6.5-1.308-8.874-3.683c-4.177-4.165-4.863-10.77-1.629-15.701c0.15-0.229,0.27-0.479,0.354-0.735L137.836,80.619
		l17.552,17.552C97.583,156.163,30.079,223.815,28.698,225.201z M184.37,117.239l-21.525-21.527
		c-0.01-0.012-0.014-0.026-0.023-0.036l-22.504-22.504c-0.008-0.007-0.018-0.01-0.027-0.017l-21.812-21.814L152.284,8.76
		l74.665,74.661L184.37,117.239z"/>
</g>
</svg>